<?xml version="1.0" encoding="iso-8859-1"?>
<!-- Generator: Adobe Illustrator 24.3.0, SVG Export Plug-In . SVG Version: 6.00 Build 0)  -->
<svg version="1.1" id="renovation" xmlns="http://www.w3.org/2000/svg" xmlns:xlink="http://www.w3.org/1999/xlink" x="0px" y="0px"
	 viewBox="0 0 512 512" style="enable-background:new 0 0 512 512;" xml:space="preserve">
<g>
	<path d="M377,306.3l-53.9-53.9l40.7-40.7l31.8,31.8c6.6,6.6,15.4,10.3,24.7,10.3s18.1-3.6,24.7-10.3l56.6-56.6
		c13.6-13.6,13.6-35.9,0-49.5L374.5,10.2c-13.6-13.6-35.9-13.6-49.5,0l-56.6,56.6c-13.6,13.6-13.6,35.9,0,49.5l31.8,31.8l-40.7,40.7
		l-53.9-53.9c11-36.7,1.1-76.7-26.4-104.2C150.9,2.4,109.7-7.2,71.6,5.5c-4.6,1.5-8.2,5.2-9.6,9.9c-1.4,4.7-0.5,9.7,2.5,13.5
		l41.7,53.6l-23.7,23.7L29,64.5c-3.8-3-8.9-3.9-13.5-2.5c-4.7,1.4-8.3,5-9.9,9.6c-12.8,38.1-3.1,79.4,25.2,107.7
		c27.5,27.5,67.5,37.4,104.2,26.4l53.9,53.9l-54.6,54.6c-2.8-2.8-6.6-4.4-10.6-4.4c-4,0-7.8,1.6-10.6,4.4l-95.5,95.5
		C6.2,420.9,0,436,0,452s6.2,31.1,17.6,42.4v0C29.3,506.2,44.6,512,60,512s30.7-5.8,42.4-17.5l95.5-95.5c5.9-5.9,5.9-15.4,0-21.2
		l0,0l54.6-54.6l53.9,53.9c-11,36.7-1.1,76.7,26.4,104.2c20.1,20.1,46.6,30.8,73.9,30.8c11.3,0,22.6-1.8,33.8-5.5
		c4.6-1.5,8.2-5.2,9.6-9.9s0.5-9.7-2.5-13.5l-41.7-53.6l23.7-23.7l53.6,41.7c3.8,3,8.9,3.9,13.5,2.5c4.7-1.4,8.3-5,9.9-9.6
		c12.8-38.1,3.1-79.4-25.2-107.7C453.7,305.3,413.8,295.4,377,306.3L377,306.3z M288.2,91.6c0-0.8,0.2-2.3,1.5-3.5l56.6-56.6
		c1.3-1.3,2.8-1.5,3.5-1.5s2.3,0.2,3.5,1.5l127.3,127.3c1.3,1.3,1.5,2.8,1.5,3.5c0,0.8-0.2,2.3-1.5,3.5L424,222.4
		c-1.3,1.3-2.8,1.5-3.5,1.5s-2.3-0.2-3.5-1.5L289.6,95.1C288.4,93.8,288.2,92.3,288.2,91.6z M149.5,177.8
		c-4.3-4.3-10.7-5.6-16.2-3.3c-28,11.4-59.9,4.9-81.3-16.5c-14.8-14.8-22.4-34.5-21.9-54.7L74.6,138c6,4.6,14.5,4.1,19.8-1.2
		l42.4-42.4c5.4-5.4,5.9-13.9,1.2-19.8L103.4,30c20.2-0.5,39.9,7.1,54.7,21.9c21.4,21.4,27.8,53.3,16.5,81.3c-2.3,5.6-1,12,3.3,16.2
		l60.5,60.5L210,238.3L149.5,177.8z M81.2,473.2c-11.7,11.7-30.7,11.7-42.4,0C33.1,467.6,30,460,30,452s3.1-15.5,8.8-21.2l84.9-84.9
		l42.4,42.4L81.2,473.2z M155.4,335.3l166-166l21.2,21.2l-166,166L155.4,335.3z M482,408.6L437.4,374c-6-4.7-14.5-4.1-19.8,1.2
		l-42.4,42.4c-5.4,5.4-5.9,13.9-1.2,19.8l34.7,44.5c-20.2,0.5-39.9-7.1-54.7-21.9c-21.4-21.4-27.8-53.3-16.5-81.3
		c2.3-5.6,1-12-3.3-16.2L273.7,302l28.3-28.3l60.5,60.5c4.3,4.3,10.7,5.6,16.2,3.3c28-11.4,59.9-4.9,81.3,16.5
		C474.8,368.7,482.5,388.5,482,408.6L482,408.6z"/>
</g>
</svg>
